<svg width="56" height="69" viewBox="0 0 56 69" fill="none" xmlns="http://www.w3.org/2000/svg">
<g opacity="0.3">
<path fill-rule="evenodd" clip-rule="evenodd" d="M2.17415 18.6199C1.7505 17.0388 1.28787 15.4653 0.91695 13.8715C0.680549 12.8577 0.942337 11.8528 1.34779 10.9196C1.60555 10.3266 2.07435 9.87147 2.79531 9.86322C3.74469 9.85349 3.26716 10.5312 3.41009 11.0002C6.17143 20.073 9.98864 28.7413 13.6261 37.4801C14.4688 39.5051 15.069 41.6404 15.6372 43.7635C15.8144 44.4276 16.2347 45.4376 15.0269 45.8231C14.0001 46.1507 13.5024 45.5019 13.0741 44.7654C10.8511 40.9401 9.26763 36.8138 7.49524 32.7799C5.46571 28.1623 3.83799 23.3873 2.17415 18.6199Z" fill="#726C65"/>
<path fill-rule="evenodd" clip-rule="evenodd" d="M35.2621 60.6055C35.2324 59.5549 35.4644 58.3343 36.3315 57.4694C40.527 53.2842 44.9009 49.2872 49.5183 45.5704C50.7358 44.59 50.6119 45.1536 51.4779 46.347C53.5937 49.262 51.2192 50.7071 49.9153 52.4711C47.6121 55.5866 44.7752 58.1795 41.5681 60.3628C40.7336 60.9304 39.921 61.5309 39.1128 62.1346C36.8729 63.8055 36.1862 63.5657 35.2621 60.6055Z" fill="#726C65"/>
<path fill-rule="evenodd" clip-rule="evenodd" d="M28.0056 54.4043C25.7699 52.2237 26.5507 49.8097 26.9659 47.3447C27.7444 42.7173 29.3982 38.3597 30.8081 33.9243C31.0643 33.1188 31.2686 31.8537 32.203 31.9386C33.1182 32.0215 33.2777 33.3042 33.5272 34.1656C33.8977 35.4407 33.3982 36.6863 33.0869 37.8743C31.7845 42.8587 30.364 47.8129 28.9679 52.7728C28.8038 53.3579 28.6707 53.9972 28.0056 54.4043Z" fill="#726C65"/>
</g>
</svg>
